<svg id="visual" viewBox="0 0 900 600" width="900" height="600" xmlns="http://www.w3.org/2000/svg" xmlns:xlink="http://www.w3.org/1999/xlink" version="1.1"><path d="M0 342L113 342L113 372L225 372L225 402L338 402L338 363L450 363L450 388L563 388L563 388L675 388L675 356L788 356L788 357L900 357L900 383L900 601L900 601L788 601L788 601L675 601L675 601L563 601L563 601L450 601L450 601L338 601L338 601L225 601L225 601L113 601L113 601L0 601Z" fill="#5412be"></path><path d="M0 439L113 439L113 423L225 423L225 487L338 487L338 448L450 448L450 472L563 472L563 441L675 441L675 482L788 482L788 427L900 427L900 492L900 601L900 601L788 601L788 601L675 601L675 601L563 601L563 601L450 601L450 601L338 601L338 601L225 601L225 601L113 601L113 601L0 601Z" fill="#490ea8"></path><path d="M0 550L113 550L113 509L225 509L225 543L338 543L338 512L450 512L450 529L563 529L563 513L675 513L675 496L788 496L788 558L900 558L900 549L900 601L900 601L788 601L788 601L675 601L675 601L563 601L563 601L450 601L450 601L338 601L338 601L225 601L225 601L113 601L113 601L0 601Z" fill="#3e0a92"></path></svg>