<svg id="visual" viewBox="0 0 1800 400" width="1800" height="400" xmlns="http://www.w3.org/2000/svg" xmlns:xlink="http://www.w3.org/1999/xlink" version="1.1"><path d="M0 131L180 131L180 181L360 181L360 149L540 149L540 129L720 129L720 102L900 102L900 171L1080 171L1080 176L1260 176L1260 102L1440 102L1440 109L1620 109L1620 213L1800 213L1800 120L1800 401L1800 401L1620 401L1620 401L1440 401L1440 401L1260 401L1260 401L1080 401L1080 401L900 401L900 401L720 401L720 401L540 401L540 401L360 401L360 401L180 401L180 401L0 401Z" fill="#5412be"></path><path d="M0 262L180 262L180 278L360 278L360 213L540 213L540 191L720 191L720 273L900 273L900 193L1080 193L1080 259L1260 259L1260 256L1440 256L1440 254L1620 254L1620 183L1800 183L1800 217L1800 401L1800 401L1620 401L1620 401L1440 401L1440 401L1260 401L1260 401L1080 401L1080 401L900 401L900 401L720 401L720 401L540 401L540 401L360 401L360 401L180 401L180 401L0 401Z" fill="#490ea8"></path><path d="M0 351L180 351L180 352L360 352L360 306L540 306L540 273L720 273L720 324L900 324L900 329L1080 329L1080 317L1260 317L1260 341L1440 341L1440 287L1620 287L1620 269L1800 269L1800 275L1800 401L1800 401L1620 401L1620 401L1440 401L1440 401L1260 401L1260 401L1080 401L1080 401L900 401L900 401L720 401L720 401L540 401L540 401L360 401L360 401L180 401L180 401L0 401Z" fill="#3e0a92"></path></svg>